<?xml version="1.0" standalone="no"?>
<!DOCTYPE svg PUBLIC "-//W3C//DTD SVG 20010904//EN"
 "http://www.w3.org/TR/2001/REC-SVG-20010904/DTD/svg10.dtd">
<svg version="1.0" xmlns="http://www.w3.org/2000/svg"
 width="267.000000pt" height="262.000000pt" viewBox="0 0 267.000000 262.000000"
 preserveAspectRatio="xMidYMid meet">
<metadata>
Created by potrace 1.10, written by Peter Selinger 2001-2011
</metadata>
<g transform="translate(0.000000,262.000000) scale(0.100000,-0.100000)"
fill="#000000" stroke="none">
<path d="M2088 2595 c-68 -18 -134 -60 -163 -102 -65 -96 -52 -216 30 -292 54
-49 103 -72 239 -110 56 -15 116 -35 133 -45 60 -30 56 -107 -7 -139 -78 -40
-180 5 -202 89 l-12 45 -51 -5 c-27 -3 -85 -8 -127 -12 -43 -3 -78 -9 -78 -12
0 -19 29 -111 43 -138 26 -51 100 -111 159 -129 29 -9 97 -19 150 -22 267 -17
428 92 428 291 0 157 -84 230 -335 290 -148 35 -188 66 -148 115 24 30 87 38
136 17 29 -12 42 -26 55 -57 l17 -41 125 7 c69 4 126 8 127 9 1 1 -4 24 -11
51 -39 147 -143 206 -357 204 -57 0 -125 -7 -151 -14z"/>
<path d="M20 2172 l0 -431 135 -3 135 -3 0 174 0 174 43 -6 c30 -4 48 -13 62
-32 18 -24 94 -160 147 -262 l22 -43 291 0 292 0 20 68 20 67 143 3 c92 2 147
-1 154 -8 6 -6 18 -37 26 -68 l15 -57 144 -3 c134 -2 143 -1 136 15 -3 10 -72
191 -151 403 -80 212 -150 397 -156 413 l-10 27 -147 0 -146 0 -160 -425 c-88
-234 -162 -425 -165 -425 -3 0 -34 57 -69 126 -72 141 -115 200 -162 224 l-32
17 38 13 c49 16 114 75 136 125 39 86 16 219 -49 276 -69 61 -78 62 -409 67
l-303 4 0 -430z m470 235 c32 -16 47 -58 34 -94 -14 -43 -65 -63 -156 -63
l-78 0 0 85 0 85 88 0 c50 0 98 -6 112 -13z m894 -189 c25 -78 44 -144 42
-146 -6 -6 -176 -8 -176 -2 -1 7 84 290 87 290 1 0 22 -64 47 -142z"/>
<path d="M1167 910 c-135 -34 -221 -143 -222 -280 0 -92 20 -152 71 -209 61
-68 126 -94 220 -89 63 3 79 8 119 36 25 17 48 32 50 32 6 0 -3 -71 -16 -122
-5 -20 -21 -51 -35 -68 -21 -24 -34 -30 -64 -30 -43 0 -67 18 -82 62 -7 20
-15 27 -27 24 -9 -3 -61 -10 -116 -17 -55 -6 -101 -13 -103 -14 -2 -2 7 -23
18 -49 28 -59 73 -103 135 -132 69 -33 237 -35 317 -3 77 30 132 79 167 149
43 88 53 152 49 309 -3 110 -8 147 -26 193 -35 88 -82 142 -156 178 -56 28
-77 32 -163 36 -54 2 -115 -1 -136 -6z m169 -159 c38 -23 64 -76 64 -129 0
-53 -14 -87 -46 -117 -64 -59 -164 -11 -177 85 -19 130 67 217 159 161z"/>
<path d="M2010 914 c-107 -21 -194 -90 -215 -171 -22 -83 0 -155 63 -209 l35
-32 -30 -16 c-74 -37 -109 -118 -100 -223 7 -72 22 -104 69 -152 57 -58 107
-74 247 -79 202 -7 301 32 355 139 21 42 26 67 26 123 0 84 -24 134 -85 181
l-40 30 41 41 c110 109 61 286 -94 345 -56 21 -213 34 -272 23z m164 -170 c39
-40 40 -106 0 -141 -52 -47 -144 -19 -158 47 -7 37 14 93 41 109 34 20 88 13
117 -15z m-8 -330 c70 -47 71 -170 2 -218 -12 -9 -40 -16 -61 -16 -75 0 -124
85 -98 170 21 71 98 102 157 64z"/>
<path d="M245 898 c-9 -28 -74 -453 -70 -457 3 -2 48 -10 101 -17 l96 -14 36
28 c28 22 46 27 88 27 45 0 58 -4 81 -28 26 -26 28 -33 28 -112 0 -79 -2 -85
-29 -114 -25 -26 -37 -31 -77 -31 -41 0 -51 4 -78 35 -17 20 -31 42 -31 50 0
7 -4 16 -10 20 -8 5 -231 -13 -238 -19 -5 -6 23 -74 47 -109 31 -48 89 -89
159 -112 79 -26 268 -18 334 14 110 53 172 155 172 281 0 118 -49 202 -146
251 -54 27 -166 35 -236 16 -29 -8 -54 -11 -55 -8 -2 3 1 30 6 59 l9 52 194 0
195 0 -3 98 -3 97 -283 3 c-221 2 -283 0 -287 -10z"/>
</g>
</svg>
